<svg width="200" height="200" viewBox="0 0 200 200" fill="none" xmlns="http://www.w3.org/2000/svg">
<path fill-rule="evenodd" clip-rule="evenodd" d="M100 200C155.228 200 200 155.228 200 100C200 44.7715 155.228 0 100 0C44.7715 0 0 44.7715 0 100C0 155.228 44.7715 200 100 200ZM100 193C48.6375 193 7 151.362 7 100C7 48.6375 48.6375 7 100 7C151.362 7 193 48.6375 193 100C193 151.362 151.362 193 100 193ZM169.291 128.701C173.06 119.602 175 109.849 175 100H169C169 109.061 167.215 118.034 163.748 126.405C160.28 134.777 155.198 142.383 148.79 148.79C142.383 155.198 134.777 160.28 126.405 163.748C118.034 167.215 109.061 169 100 169C90.9388 169 81.9663 167.215 73.5948 163.748C65.2234 160.28 57.6169 155.198 51.2096 148.79C44.8024 142.383 39.7199 134.777 36.2523 126.405C32.7847 118.034 31 109.061 31 100H25C25 109.849 26.9399 119.602 30.709 128.701C34.4781 137.801 40.0026 146.069 46.967 153.033C53.9314 159.997 62.1993 165.522 71.2987 169.291C80.3982 173.06 90.1509 175 100 175C109.849 175 119.602 173.06 128.701 169.291C137.801 165.522 146.069 159.997 153.033 153.033C159.997 146.069 165.522 137.801 169.291 128.701ZM77 64C77 80.5685 72.5229 94 67 94C61.4772 94 57 80.5685 57 64C57 47.4315 61.4772 34 67 34C72.5229 34 77 47.4315 77 64ZM133 94C138.523 94 143 80.5685 143 64C143 47.4315 138.523 34 133 34C127.477 34 123 47.4315 123 64C123 80.5685 127.477 94 133 94Z" fill="#2327a9"/>
</svg>
